<?xml version="1.0" encoding="UTF-8"?>
<!DOCTYPE svg PUBLIC "-//W3C//DTD SVG 1.1//EN" "http://www.w3.org/Graphics/SVG/1.1/DTD/svg11.dtd">
<!-- Creator: CorelDRAW X8 -->
<svg xmlns="http://www.w3.org/2000/svg" xml:space="preserve" width="100%" height="100%" version="1.1" style="shape-rendering:geometricPrecision; text-rendering:geometricPrecision; image-rendering:optimizeQuality; fill-rule:evenodd; clip-rule:evenodd"
viewBox="0 0 5927 5080"
 xmlns:xlink="http://www.w3.org/1999/xlink">
 <defs>
  <style type="text/css">
   <![CDATA[
    .str1 {stroke:#141414;stroke-width:16.93}
    .str0 {stroke:#424242;stroke-width:20}
    .fil1 {fill:black}
    .fil0 {fill:#383838}
   ]]>
  </style>
 </defs>
 <g id="Layer_x0020_1">
  <metadata id="CorelCorpID_0Corel-Layer"/>
  <rect class="fil0 str0" width="5935" height="5105"/>
  <g id="_1498360699856">
   <path class="fil1 str1" d="M2795 3671c24,-1 49,0 73,-1 9,0 18,1 26,3 2,14 -3,28 0,43 10,1 20,-2 31,-3 6,-2 13,3 12,10 0,31 -1,62 -1,94 -11,4 -23,-1 -35,-2 -5,2 -9,6 -8,11 0,12 0,25 6,35 18,-1 36,-1 54,3 18,10 15,33 14,50 5,6 10,11 18,9 16,-1 34,15 29,32 -4,12 -17,18 -26,26 -11,11 -20,23 -30,34 -16,21 -22,47 -26,72 5,6 11,11 16,16 -4,9 -13,16 -14,26 -3,13 -2,27 -2,40 7,9 18,11 29,13 10,14 -8,33 8,45 8,0 17,-2 22,4 7,9 2,21 -8,25 -16,7 -33,5 -50,9 -2,21 0,41 0,62 0,64 -1,129 0,194 3,48 16,96 33,141 18,45 47,84 79,120 9,12 12,28 11,43 0,22 0,45 1,67 13,9 12,25 13,39 0,5 -3,11 -9,12 -20,5 -42,5 -63,6 -77,8 -155,7 -233,5 -28,-2 -56,-2 -84,-5 -22,-1 -44,-3 -65,-11 -5,-11 0,-24 0,-36 4,-4 11,-8 11,-14 0,-24 0,-47 0,-70 0,-13 4,-26 12,-36 71,-79 110,-184 114,-289 0,-76 2,-152 0,-227 -17,-9 -39,-2 -55,-14 -7,-4 -7,-13 -5,-20 5,-11 21,-2 27,-12 9,-10 -1,-23 3,-35 5,-13 25,-6 29,-20 3,-13 2,-27 1,-40 1,-8 -7,-14 -11,-21 -2,-8 8,-11 11,-17 2,-7 1,-14 0,-21 -8,-27 -20,-52 -38,-73 -10,-11 -23,-20 -33,-31 -9,-9 -10,-25 0,-33 8,-10 21,-6 32,-6 10,-12 8,-27 8,-41 0,-11 10,-22 22,-22 16,-1 32,0 48,-1 2,-14 4,-28 4,-42 -12,-5 -25,3 -37,1 -9,-2 -8,-13 -8,-20 1,-28 -1,-56 2,-84 15,-5 30,4 45,0 -1,-15 -5,-29 -3,-43z"/>
   <path class="fil1 str1" d="M3354 3748c16,-6 34,-8 51,-5 19,2 36,18 43,36 3,14 1,29 -8,41 -11,13 -8,30 -5,46 9,2 21,3 27,11 10,12 14,27 24,38 20,9 46,-8 63,8 13,9 14,31 0,40 -37,30 -66,73 -70,121 4,4 8,8 12,12 0,11 -11,19 -11,30 0,12 0,24 0,36 2,2 5,5 8,7 10,0 22,5 24,16 0,10 -4,20 -3,30 1,1 4,4 5,5 9,0 21,-3 27,6 7,10 -2,22 -11,26 -16,7 -33,6 -49,10 -2,10 -2,20 -2,29 1,63 0,125 1,187 4,25 1,50 6,75 10,60 33,119 67,169 9,13 17,28 28,39 9,10 17,21 24,33 6,15 3,32 4,48 0,15 0,31 1,46 14,10 14,29 10,44 -5,8 -17,7 -25,10 -42,6 -85,5 -127,9 -41,1 -83,0 -124,1 -37,0 -75,-5 -113,-4 -24,-4 -49,0 -71,-10 -1,-12 -1,-24 1,-36 1,-6 8,-10 9,-17 4,-31 -4,-64 5,-95 9,-15 21,-26 31,-40 37,-46 66,-100 78,-158 8,-31 13,-63 13,-96 0,-44 0,-89 -1,-134 -2,-32 -2,-63 1,-95 -1,-1 -3,-3 -4,-5 -18,-5 -41,0 -56,-15 -7,-7 -4,-21 5,-24 8,-2 15,-3 23,-4 2,-12 0,-24 0,-36 3,-3 5,-6 8,-9 7,-1 14,-2 19,-7 5,-16 1,-34 1,-51 -4,-3 -7,-7 -11,-10 0,-4 0,-8 0,-12 18,-6 12,-28 7,-41 -6,-26 -25,-47 -41,-68 -12,-14 -35,-21 -33,-42 -1,-11 7,-20 16,-23 18,-2 36,1 53,1 7,-13 14,-26 22,-39 6,-9 18,-12 29,-13 5,-11 4,-24 3,-36 -3,-12 -14,-22 -14,-35 -3,-21 10,-43 30,-50z"/>
   <path class="fil1 str1" d="M1380 3920c2,-7 8,-14 16,-14 32,-3 64,3 95,11 17,24 24,55 43,79 18,30 35,62 50,94 11,19 8,43 19,62 14,30 33,60 35,94 3,16 -5,33 2,49 13,31 19,65 17,99 0,10 -3,20 -8,29 3,35 4,70 2,105 -1,17 0,41 -18,50 -28,8 -58,7 -88,12 0,18 5,35 14,50 15,31 33,59 54,86 13,20 36,34 41,58 5,29 3,58 5,86 12,14 12,35 7,52 -36,10 -74,12 -111,12 -74,6 -148,4 -222,3 -39,-4 -79,-1 -117,-12 -10,-13 -7,-35 3,-48 5,-6 3,-14 4,-21 1,-22 -2,-45 1,-67 5,-25 28,-39 41,-58 32,-40 51,-88 69,-135 -1,-2 -3,-7 -5,-9 -24,-4 -49,-5 -73,-11 -6,-20 3,-40 8,-60 17,-67 35,-135 50,-203 5,-20 8,-39 8,-59 -13,-1 -26,1 -39,1 -28,-2 -56,-4 -84,-7 -9,-1 -18,-2 -27,-5 -11,-6 -7,-21 -11,-31 -7,-20 -15,-42 -11,-64 6,-11 17,-16 27,-24 56,-41 113,-81 168,-123 6,-5 12,-10 14,-17 7,-21 14,-43 21,-64z"/>
   <path class="fil1 str1" d="M4505 3917c16,-5 33,-5 50,-7 19,4 39,-1 57,7 9,21 15,44 22,66 2,6 3,14 9,18 68,51 139,98 206,149 3,29 -9,56 -16,84 -5,14 -22,13 -34,15 -26,0 -52,5 -78,4 -14,-1 -27,1 -40,6 -3,10 -8,19 -5,30 6,30 14,61 21,91 14,50 25,100 40,149 4,11 9,22 8,35 2,8 -6,15 -13,16 -22,5 -45,4 -67,10 10,60 47,111 82,159 14,13 30,27 31,47 0,27 -1,54 -1,81 4,4 8,7 12,11 1,11 1,22 1,33 -51,14 -105,13 -158,14 -38,2 -77,1 -116,0 -40,-2 -80,1 -120,-4 -20,-3 -41,-2 -61,-6 -3,-14 -2,-28 1,-42 2,-5 6,-9 9,-13 2,-17 1,-33 1,-49 1,-15 -2,-31 5,-45 4,-11 12,-18 20,-26 30,-38 58,-79 75,-126 4,-11 10,-23 9,-35 -23,-1 -45,-3 -68,-5 -11,-3 -26,-3 -32,-15 -10,-19 -8,-41 -10,-62 -2,-26 2,-52 2,-78 -10,-51 -8,-104 12,-152 3,-12 2,-25 4,-38 2,-37 18,-71 37,-101 7,-32 17,-64 33,-92 14,-24 30,-46 44,-70 10,-19 18,-39 28,-59z"/>
   <path class="fil1 str1" d="M3897 3931c4,-7 12,-6 19,-6 30,0 59,-1 89,1 4,1 7,3 11,4 0,3 2,7 2,10 0,1 -2,5 -3,7 -6,1 -12,3 -18,5 -1,2 -4,6 -5,7 4,17 20,24 32,34 18,18 40,33 55,54 18,24 24,58 11,85 -7,17 -21,29 -34,40 -1,7 -1,14 -2,21 3,3 6,5 9,8 0,2 0,6 0,8 -5,5 -11,9 -14,15 -2,17 0,33 -1,50 1,2 4,6 5,8 8,2 15,5 23,9 1,4 2,7 4,10 -5,12 -5,24 -1,35 13,0 38,-6 41,10 1,11 -13,15 -24,20 -15,6 -32,6 -48,9 -2,17 0,34 0,51 1,33 -1,66 3,99 2,69 29,135 61,196 13,21 26,43 45,59 5,10 12,19 14,30 2,21 -1,41 1,62 1,11 11,18 14,28 2,9 1,19 0,28 -19,7 -39,8 -58,9 -109,9 -219,8 -328,1 -23,0 -46,-2 -69,-6 -3,-12 -2,-25 0,-37 0,-8 8,-12 11,-19 1,-23 -2,-46 0,-69 2,-15 13,-27 23,-39 18,-20 33,-42 47,-66 15,-25 22,-55 33,-82 13,-45 22,-91 21,-138 0,-36 1,-72 -1,-107 -18,-7 -40,-3 -56,-15 -6,-5 -7,-14 -4,-21 5,-8 16,-7 25,-8 2,-2 5,-5 8,-7 -1,-12 -11,-27 1,-36 7,-7 22,-3 24,-15 3,-18 1,-35 2,-53 -5,-4 -10,-9 -15,-14 4,-12 16,-28 4,-39 -25,-17 -41,-49 -36,-79 1,-22 13,-42 28,-57 22,-19 43,-39 66,-57 6,-5 8,-12 11,-18 -7,-4 -14,-7 -22,-9 -3,-5 -8,-11 -4,-16z"/>
   <path class="fil1 str1" d="M629 4121l29 0c24,-2 48,-2 72,-1 0,4 1,8 2,13 15,0 31,0 46,0 3,-4 5,-7 8,-10 23,-1 47,-2 70,0 5,1 8,3 12,5 3,0 8,0 11,0 -1,21 0,41 -1,62 0,6 -6,10 -9,15 3,25 2,51 0,76 0,11 -6,21 -16,25 -15,6 -32,5 -47,9 -1,1 -4,4 -5,6 0,14 0,28 0,41 2,63 -3,126 6,188 11,61 35,121 71,172 15,24 42,41 46,71 3,26 -2,52 3,78 13,13 13,32 12,50 -25,11 -52,9 -79,12 -28,1 -56,6 -85,5 -72,2 -144,1 -215,-1 -20,-3 -40,-5 -60,-7 -8,-1 -18,-2 -22,-10 -2,-15 -1,-32 10,-43 3,-26 -1,-52 1,-77 1,-15 9,-26 17,-38 10,-9 19,-19 26,-32 4,-10 11,-19 16,-28 42,-69 66,-149 63,-230 0,-51 0,-102 0,-154 -19,-7 -44,-2 -60,-18 -13,-15 -8,-36 -9,-54 -2,-20 10,-43 -7,-58 0,-20 0,-40 0,-59 14,-6 31,-4 46,-4 15,-1 27,9 42,8 2,-4 4,-8 6,-12z"/>
   <path class="fil1 str1" d="M5305 4137c15,1 27,-9 42,-8 15,0 31,-2 46,4 -1,19 0,39 -1,58 -16,15 -4,38 -6,57 -2,18 4,39 -9,54 -16,15 -40,10 -60,18 0,50 1,100 1,150 -4,80 20,159 61,227 6,9 12,18 16,28 7,12 17,22 26,31 8,12 16,23 17,37 2,25 -2,51 1,76 11,12 11,28 10,43 -4,7 -14,9 -22,10 -19,2 -39,4 -59,6 -71,2 -142,4 -213,1 -28,1 -55,-4 -83,-4 -27,-4 -54,-2 -79,-12 -1,-18 0,-37 13,-50 4,-25 0,-51 2,-77 4,-29 31,-46 46,-69 35,-51 59,-109 70,-170 8,-61 4,-123 6,-184 0,-14 0,-27 0,-41 -1,-2 -4,-5 -5,-6 -15,-4 -31,-2 -46,-9 -10,-4 -16,-14 -17,-24 -2,-25 -2,-50 1,-75 -3,-5 -10,-9 -10,-15 0,-21 1,-41 0,-61 3,0 8,0 10,0 4,-2 8,-4 12,-5 23,-2 47,0 70,0 2,3 5,6 7,10 16,0 31,-1 46,0 1,-5 2,-9 2,-13 24,-1 47,-1 71,1l28 0c2,4 4,8 6,12z"/>
   <path class="fil1 str1" d="M2399 4895c0,-8 -9,-11 -10,-18 -4,-32 9,-71 -16,-98 -38,-43 -68,-92 -84,-148 -16,-42 -20,-87 -23,-131 1,-42 0,-83 0,-125 21,-6 46,-2 64,-17 0,-6 2,-12 -2,-17 -6,-9 -17,-7 -26,-9 -2,-3 -3,-6 -5,-9 1,-11 8,-23 0,-32 -4,-8 -15,-6 -22,-10 -11,-8 -4,-24 -6,-35 -1,-14 2,-28 15,-36 0,-3 0,-6 1,-10 -8,-7 -10,-16 -9,-26 15,-12 30,-25 36,-44 13,-26 6,-56 -8,-80 -15,-21 -36,-36 -54,-54 -12,-13 -30,-22 -36,-40 10,-7 29,-8 29,-25 -14,-10 -32,-5 -48,-6l-67 0c-4,0 -8,2 -10,6 -3,15 14,19 24,21 1,2 2,6 2,8 -21,25 -50,44 -73,67 -29,24 -44,66 -28,101 7,19 23,32 37,47 1,10 -6,18 -12,26 -2,9 10,12 15,17 1,18 1,35 1,52 0,6 -6,10 -10,13 -6,1 -14,-1 -18,5 -9,10 1,24 -1,35 -5,9 -17,6 -25,9 -9,1 -8,13 -9,20 14,21 41,15 62,22 0,89 4,181 -28,265 -6,21 -13,42 -26,60 -16,28 -34,56 -58,80 -7,9 -14,19 -15,31 0,23 1,46 -1,69 -13,9 -13,27 -14,41 1,2 4,6 5,9 23,9 49,7 74,9 75,9 151,6 227,6 46,-3 92,-3 138,-10 7,-1 12,-5 17,-10 -1,-10 -2,-20 -3,-29z"/>
  </g>
 </g>
</svg>
